<?xml version="1.0" encoding="utf-8"?>
<!-- Generator: Adobe Illustrator 27.0.0, SVG Export Plug-In . SVG Version: 6.00 Build 0)  -->
<svg version="1.1" id="Layer_1" xmlns="http://www.w3.org/2000/svg" xmlns:xlink="http://www.w3.org/1999/xlink" x="0px" y="0px"
	 viewBox="0 0 421 285.96" style="enable-background:new 0 0 421 285.96;" xml:space="preserve">
<style type="text/css">
	.st0{fill:#105C78;}
	.st1{fill:#00ADDC;}
	.st2{fill:#B2D33B;}
</style>
<g>
	<g>
		<path class="st0" d="M169.45,85.04V48.03l-22.01-12.71v62.43c0,6.43,3.43,12.37,9,15.59l54.06,31.21v-25.42l-32.05-18.5
			C172.88,97.41,169.45,91.47,169.45,85.04z"/>
		<path class="st0" d="M188.26,58.89v18.2c0,4.63,2.47,8.91,6.48,11.22l15.76,9.1V71.73L188.26,58.89z"/>
		<path class="st1" d="M201.5,4.11l-13.24,7.65v25.42l13.24-7.65c5.57-3.22,12.43-3.22,18,0l31.74,18.32c0.19,0.11,0.43,0.11,0.62,0
			l21.7-12.53L219.5,4.11C213.93,0.9,207.07,0.9,201.5,4.11z"/>
		<polygon class="st1" points="169.45,22.61 147.44,35.32 169.45,48.03 		"/>
		<path class="st1" d="M232.74,58.89l-15.76-9.1c-4.01-2.32-8.95-2.32-12.96,0l-15.76,9.1l22.24,12.84L232.74,58.89z"/>
		<path class="st2" d="M251.55,48.03v37.01c0,6.43-3.43,12.37-9,15.59l-32.05,18.5v25.42l54.06-31.21c5.57-3.22,9-9.16,9-15.59
			V35.32L251.55,48.03z"/>
		<path class="st2" d="M232.74,58.89L210.5,71.73v25.68l15.76-9.1c4.01-2.32,6.48-6.59,6.48-11.22V58.89z"/>
	</g>
	<g>
		<g>
			<path class="st0" d="M0,245.23h4.92l15.77,25.81v-25.81h4.36v33.15H20.5L4.36,252.05v26.33H0V245.23z"/>
			<path class="st0" d="M31.82,271.09c0-5.35,2.23-6.96,6.49-7.43c2.27-0.24,5.68-0.57,9.52-0.71v-3.88c0-1.85-0.71-2.56-2.56-2.56
				h-5.73c-1.85,0-2.56,0.71-2.56,2.56v0.95h-4.31v-0.85c0-4.31,2.04-6.35,6.35-6.35h6.77c4.31,0,6.35,2.04,6.35,6.35v19.23h-4.31
				v-3.65c-1.99,2.46-4.12,3.84-8.76,3.84C33.86,278.57,31.82,276.39,31.82,271.09z M47.83,272.08v-6.3l-8.95,1.18
				c-1.99,0.28-2.75,0.85-2.75,3.88c0,3.08,0.71,3.98,3.41,3.98C43.38,274.83,45.32,273.79,47.83,272.08z"/>
			<path class="st0" d="M60,272.03v-15.58h-3.79v-3.65h3.84v-6.16h4.26v6.16h6.11v3.65h-6.06v15.63c0,1.8,0.71,2.56,2.56,2.56h3.5
				v3.74h-4.07C62.04,278.38,60,276.34,60,272.03z"/>
			<path class="st0" d="M75.49,244.43h4.78v4.83h-4.78V244.43z M75.72,252.81h4.31v25.57h-4.31V252.81z"/>
			<path class="st0" d="M86.66,272.03v-12.88c0-4.31,2.04-6.35,6.35-6.35h7.77c4.31,0,6.35,2.04,6.35,6.35v12.88
				c0,4.31-2.04,6.35-6.35,6.35h-7.77C88.7,278.38,86.66,276.34,86.66,272.03z M100.21,274.54c1.85,0,2.56-0.76,2.56-2.56V259.2
				c0-1.8-0.71-2.56-2.56-2.56h-6.68c-1.8,0-2.56,0.76-2.56,2.56v12.79c0,1.8,0.76,2.56,2.56,2.56H100.21z"/>
			<path class="st0" d="M113.56,252.81h4.31v3.55c2.23-2.23,4.12-3.79,8.67-3.79c5.16,0,7.2,2.04,7.2,6.39v19.41h-4.36v-19.27
				c0-1.89-0.66-2.6-3.27-2.6c-3.79,0-5.73,0.85-8.24,2.56v19.32h-4.31V252.81z"/>
			<path class="st0" d="M139.42,271.09c0-5.35,2.23-6.96,6.49-7.43c2.27-0.24,5.68-0.57,9.52-0.71v-3.88c0-1.85-0.71-2.56-2.56-2.56
				h-5.73c-1.85,0-2.56,0.71-2.56,2.56v0.95h-4.31v-0.85c0-4.31,2.04-6.35,6.35-6.35h6.77c4.31,0,6.35,2.04,6.35,6.35v19.23h-4.31
				v-3.65c-1.99,2.46-4.12,3.84-8.76,3.84C141.46,278.57,139.42,276.39,139.42,271.09z M155.42,272.08v-6.3l-8.95,1.18
				c-1.99,0.28-2.75,0.85-2.75,3.88c0,3.08,0.71,3.98,3.41,3.98C150.97,274.83,152.92,273.79,155.42,272.08z"/>
			<path class="st0" d="M166.65,243.81h4.31v34.57h-4.31V243.81z"/>
			<path class="st0" d="M190.23,245.23h4.55v28.98h15.72v4.17h-20.27V245.23z"/>
			<path class="st0" d="M214.29,271.09c0-5.35,2.23-6.96,6.49-7.43c2.27-0.24,5.68-0.57,9.52-0.71v-3.88c0-1.85-0.71-2.56-2.56-2.56
				h-5.73c-1.85,0-2.56,0.71-2.56,2.56v0.95h-4.31v-0.85c0-4.31,2.04-6.35,6.35-6.35h6.77c4.31,0,6.35,2.04,6.35,6.35v19.23h-4.31
				v-3.65c-1.99,2.46-4.12,3.84-8.76,3.84C216.33,278.57,214.29,276.39,214.29,271.09z M230.3,272.08v-6.3l-8.95,1.18
				c-1.99,0.28-2.75,0.85-2.75,3.88c0,3.08,0.71,3.98,3.41,3.98C225.84,274.83,227.79,273.79,230.3,272.08z"/>
			<path class="st0" d="M245.69,274.78v3.6h-4.31v-34.57h4.31v12.6c2.23-2.23,4.12-3.79,9-3.79c5.45,0,7.48,2.04,7.48,6.49v12.97
				c0,4.45-2.04,6.49-7.48,6.49C249.81,278.57,247.91,277.01,245.69,274.78z M257.86,271.94v-12.69c0-1.99-0.76-2.7-3.65-2.7
				c-4.07,0-6.01,0.85-8.52,2.56v12.97c2.51,1.7,4.45,2.56,8.52,2.56C257.1,274.64,257.86,273.93,257.86,271.94z"/>
			<path class="st0" d="M268.04,272.03v-12.88c0-4.31,2.04-6.35,6.35-6.35h7.77c4.31,0,6.35,2.04,6.35,6.35v12.88
				c0,4.31-2.04,6.35-6.35,6.35h-7.77C270.08,278.38,268.04,276.34,268.04,272.03z M281.58,274.54c1.85,0,2.56-0.76,2.56-2.56V259.2
				c0-1.8-0.71-2.56-2.56-2.56h-6.68c-1.8,0-2.56,0.76-2.56,2.56v12.79c0,1.8,0.76,2.56,2.56,2.56H281.58z"/>
			<path class="st0" d="M294.94,252.81h4.31v3.79c2.08-2.04,4.07-3.79,7.86-3.79H309v4.12h-2.27c-3.03,0-5.16,1.09-7.48,2.51v18.94
				h-4.31V252.81z"/>
			<path class="st0" d="M312.03,271.09c0-5.35,2.23-6.96,6.49-7.43c2.27-0.24,5.68-0.57,9.52-0.71v-3.88c0-1.85-0.71-2.56-2.56-2.56
				h-5.73c-1.85,0-2.56,0.71-2.56,2.56v0.95h-4.31v-0.85c0-4.31,2.04-6.35,6.35-6.35H326c4.31,0,6.35,2.04,6.35,6.35v19.23h-4.31
				v-3.65c-1.99,2.46-4.12,3.84-8.76,3.84C314.07,278.57,312.03,276.39,312.03,271.09z M328.04,272.08v-6.3l-8.95,1.18
				c-1.99,0.28-2.75,0.85-2.75,3.88c0,3.08,0.71,3.98,3.41,3.98C323.59,274.83,325.53,273.79,328.04,272.08z"/>
			<path class="st0" d="M340.21,272.03v-15.58h-3.79v-3.65h3.84v-6.16h4.26v6.16h6.11v3.65h-6.06v15.63c0,1.8,0.71,2.56,2.56,2.56
				h3.5v3.74h-4.07C342.25,278.38,340.21,276.34,340.21,272.03z"/>
			<path class="st0" d="M354.61,272.03v-12.88c0-4.31,2.04-6.35,6.35-6.35h7.77c4.31,0,6.35,2.04,6.35,6.35v12.88
				c0,4.31-2.04,6.35-6.35,6.35h-7.77C356.64,278.38,354.61,276.34,354.61,272.03z M368.15,274.54c1.85,0,2.56-0.76,2.56-2.56V259.2
				c0-1.8-0.71-2.56-2.56-2.56h-6.68c-1.8,0-2.56,0.76-2.56,2.56v12.79c0,1.8,0.76,2.56,2.56,2.56H368.15z"/>
			<path class="st0" d="M381.51,252.81h4.31v3.79c2.08-2.04,4.07-3.79,7.86-3.79h1.89v4.12h-2.27c-3.03,0-5.16,1.09-7.48,2.51v18.94
				h-4.31V252.81z"/>
			<path class="st0" d="M406.84,278.38l-9.19-25.57h4.55l6.82,20.6l7.01-20.6h4.4l-12.12,33.15h-4.12L406.84,278.38z"/>
		</g>
		<g>
			<g>
				<g>
					<path d="M0,168.9h27.96c7.63,0,11.25,3.62,11.25,11.25v7.71c0,4.42-1.93,7.07-5.22,8.52c3.94,1.37,5.87,4.18,5.87,8.6v8.92
						c0,7.63-3.62,11.25-11.25,11.25H0V168.9z M27.07,192.93c3.21,0,4.42-1.21,4.42-4.34v-8.28c0-3.21-1.21-4.42-4.42-4.42H7.71
						v17.03H27.07z M27.72,218.16c3.21,0,4.42-1.21,4.42-4.42v-9.56c0-3.21-1.21-4.42-4.42-4.42h-20v18.4H27.72z"/>
					<path d="M50.62,181.76h7.31v6.43c3.54-3.46,6.91-6.43,13.34-6.43h3.21v6.99h-3.86c-5.14,0-8.76,1.85-12.69,4.26v32.14h-7.31
						V181.76z"/>
					<path d="M80.42,214.38v-21.86c0-7.31,3.46-10.77,10.77-10.77h13.18c7.31,0,10.76,3.46,10.76,10.77v21.86
						c0,7.31-3.45,10.77-10.76,10.77H91.19C83.88,225.15,80.42,221.7,80.42,214.38z M103.4,218.64c3.13,0,4.34-1.29,4.34-4.34v-21.7
						c0-3.05-1.21-4.34-4.34-4.34H92.07c-3.05,0-4.34,1.29-4.34,4.34v21.7c0,3.05,1.29,4.34,4.34,4.34H103.4z"/>
					<path d="M125.1,214.38v-21.86c0-7.31,3.46-10.77,10.77-10.77h13.18c7.31,0,10.76,3.46,10.76,10.77v21.86
						c0,7.31-3.45,10.77-10.76,10.77h-13.18C128.55,225.15,125.1,221.7,125.1,214.38z M148.07,218.64c3.13,0,4.34-1.29,4.34-4.34
						v-21.7c0-3.05-1.21-4.34-4.34-4.34h-11.33c-3.05,0-4.34,1.29-4.34,4.34v21.7c0,3.05,1.29,4.34,4.34,4.34H148.07z"/>
					<path d="M197.81,225.15l-11.65-21.37l-8.19,9.72v11.65h-7.23v-58.66h7.23v37.61l17.92-22.34h8.84l-13.9,16.47l15.02,26.92
						H197.81z"/>
					<path d="M212.99,166.49h7.31v21.29c3.78-3.78,6.99-6.43,14.7-6.43c8.76,0,12.21,3.46,12.21,10.85v32.94h-7.39v-32.7
						c0-3.21-1.12-4.42-5.54-4.42c-6.43,0-9.72,1.45-13.98,4.34v32.78h-7.31V166.49z"/>
					<path d="M256.86,212.78c0-9.08,3.78-11.81,11.01-12.62c3.86-0.4,9.64-0.96,16.15-1.21v-6.59c0-3.13-1.21-4.34-4.34-4.34h-9.72
						c-3.13,0-4.34,1.21-4.34,4.34v1.61h-7.31v-1.45c0-7.31,3.45-10.77,10.76-10.77h11.49c7.31,0,10.77,3.46,10.77,10.77v32.62
						h-7.31v-6.19c-3.38,4.18-6.99,6.51-14.86,6.51C260.31,225.47,256.86,221.78,256.86,212.78z M284.01,214.46v-10.69l-15.18,2.01
						c-3.37,0.48-4.66,1.45-4.66,6.59c0,5.22,1.21,6.75,5.78,6.75C276.46,219.12,279.76,217.36,284.01,214.46z"/>
					<path d="M297.83,181.76h7.79l11.41,37.04l11.41-37.04h7.47l-14.7,43.39h-8.68L297.83,181.76z"/>
					<path d="M349.33,205.22v9.4c0,3.05,1.29,4.34,4.34,4.34h10.85c3.05,0,4.34-1.29,4.34-4.34v-3.21h7.31v2.97
						c0,7.31-3.45,10.77-10.76,10.77h-12.61c-7.31,0-10.77-3.46-10.77-10.77v-21.86c0-7.31,3.46-10.77,10.77-10.77h12.61
						c7.31,0,10.76,3.46,10.76,10.77v12.7H349.33z M349.33,192.29v7.47h19.52v-7.47c0-3.05-1.21-4.34-4.34-4.34h-10.85
						C350.62,187.95,349.33,189.23,349.33,192.29z"/>
					<path d="M386.78,181.76h7.31v6.03c3.78-3.78,6.99-6.43,14.7-6.43c8.76,0,12.21,3.46,12.21,10.85v32.94h-7.39v-32.7
						c0-3.21-1.12-4.42-5.54-4.42c-6.43,0-9.72,1.45-13.98,4.34v32.78h-7.31V181.76z"/>
				</g>
			</g>
		</g>
	</g>
</g>
</svg>
