<svg xmlns="http://www.w3.org/2000/svg" id="nucoe-logo" viewBox="0 0 227.4 43.9" style="enable-background:new 0 0 227.4 43.9" xml:space="preserve"><path d="M13.6 29.8c-1.1-3.1-3.6-4.2-6.4-4.1C3.6 25.7.3 27.9.3 33c0 5.3 3.4 7.4 6.9 7.4 3 0 5.6-1.4 6.7-4.3l-3.3-1c-.6 1.5-1.5 2.4-3.2 2.4C5.2 37.5 4 35.8 4 33s1.3-4.4 3.3-4.4c1.5 0 2.3.7 2.9 2.1l3.4-.9M20.6 31.6c1.3 0 2.2.9 2.2 3s-.8 3.1-2.2 3.1c-1.5 0-2.3-1.1-2.3-3.1 0-2.1.9-3 2.3-3zm-.1-2.6c-3.6 0-5.8 2.3-5.8 5.6s2.1 5.6 5.8 5.6c3.6 0 5.8-2.2 5.8-5.6 0-3.2-2.2-5.6-5.8-5.6zM27.7 26h3.4v14h-3.4V26zM33 26h3.3v14H33V26zM43 31.4c1.2 0 1.9.6 2 2.1h-3.9c.1-1.5.9-2.1 1.9-2.1zm.1-2.2c-3.4 0-5.4 2.3-5.4 5.6 0 3.2 2.1 5.6 5.6 5.6 2.4 0 4.1-1 5.1-2.6l-2.6-1.3c-.5.7-1.2 1.3-2.3 1.3-1.3 0-2.2-.8-2.3-2.3h7.3v-.6c0-3.7-2.1-5.9-5.4-5.7zM54.5 31.1c1.1 0 1.7.5 1.7 1.4 0 .9-.6 1.4-1.7 1.4s-1.7-.6-1.7-1.4c0-.8.6-1.4 1.7-1.4zm.3 8.6c1.3 0 1.8.2 1.8.9 0 .6-.6 1-2.3 1-2 0-2.4-.4-2.4-1 0-.3.1-.6.5-.9h2.4zm5.5-8.8v-2.6c-1.5 0-2.5.6-3.2 1.4-.8-.4-1.7-.6-2.9-.6-3.3 0-4.9 1.6-4.9 3.6 0 1.1.6 2 1.5 2.6-.9.5-1.4 1.2-1.4 2 0 .7.3 1.4 1.1 1.8-1 .5-1.5 1.2-1.5 2.1 0 1.5 1.2 2.7 5.3 2.7 3.7 0 5.6-1.3 5.6-3.4 0-1.9-1.5-3.3-4.7-3.3h-1.7c-1 0-1.3-.3-1.3-.7 0-.2.1-.4.3-.6.6.2 1.3.3 2.1.3 3.2 0 4.8-1.6 4.8-3.5 0-.6-.1-1.1-.5-1.6.4-.2.8-.2 1.4-.2zM66 31.4c1.2 0 1.9.6 2 2.1h-3.9c.1-1.5.9-2.1 1.9-2.1zm0-2.2c-3.4 0-5.4 2.3-5.4 5.6 0 3.2 2.1 5.6 5.6 5.6 2.4 0 4.1-1 5.1-2.6l-2.6-1.3c-.5.7-1.2 1.3-2.3 1.3-1.3 0-2.2-.8-2.3-2.3h7.3v-.6c0-3.7-2-5.9-5.4-5.7zM82.1 31.6c1.3 0 2.2.9 2.2 3s-.8 3.1-2.2 3.1c-1.5 0-2.3-1.1-2.3-3.1 0-2.1.9-3 2.3-3zM82 29c-3.6 0-5.8 2.3-5.8 5.6s2.1 5.6 5.8 5.6c3.6 0 5.8-2.2 5.8-5.6 0-3.2-2.2-5.6-5.8-5.6zM96 26c-.7-.2-1.6-.4-2.7-.4-2.6 0-3.7 1.3-3.7 3.1v.9h-1.4V32h1.4v8.1H93V32h2.5v-2.4H93V29c0-.7.3-.9 1.1-.9.6 0 1.3.1 1.9.2V26M110.3 28.9V26h-9.7v14h9.9v-2.9h-6.3v-2.9h5.7v-2.7h-5.7v-2.6h6.1M122.2 33c0-2.6-1.3-4-3.6-4-1.4 0-2.6.5-3.4 1.7v-1.4H112V40h3.4v-5.8c0-1.5.8-2.4 1.9-2.4s1.5.7 1.5 2.2v6h3.4v-7M128.7 31.1c1.1 0 1.7.5 1.7 1.4 0 .9-.6 1.4-1.7 1.4s-1.7-.6-1.7-1.4c0-.8.6-1.4 1.7-1.4zm.4 8.6c1.3 0 1.8.2 1.8.9 0 .6-.6 1-2.3 1-2 0-2.4-.4-2.4-1 0-.3.1-.6.5-.9h2.4zm5.5-8.8v-2.6c-1.5 0-2.5.6-3.2 1.4-.8-.4-1.7-.6-2.9-.6-3.3 0-4.9 1.6-4.9 3.6 0 1.1.6 2 1.5 2.6-.9.5-1.4 1.2-1.4 2 0 .7.3 1.4 1.1 1.8-1 .5-1.5 1.2-1.5 2.1 0 1.5 1.2 2.7 5.3 2.7 3.7 0 5.6-1.3 5.6-3.4 0-1.9-1.5-3.3-4.7-3.3h-1.7c-1 0-1.3-.3-1.3-.7 0-.2.1-.4.3-.6.6.2 1.3.3 2.1.3 3.2 0 4.8-1.6 4.8-3.5 0-.6-.1-1.1-.5-1.6.4-.2.8-.2 1.5-.2h-.1zM135.6 29.3h3.4V40h-3.4V29.3zm1.7-5c-1 0-1.9.8-1.9 1.8s.9 1.8 1.9 1.8 1.9-.8 1.9-1.8c0-1.1-.9-1.9-1.9-1.8zM151 33c0-2.6-1.3-4-3.6-4-1.4 0-2.6.5-3.4 1.7v-1.4h-3.2V40h3.4v-5.8c0-1.5.8-2.4 1.9-2.4s1.5.7 1.5 2.2v6h3.4v-7M157.6 31.4c1.2 0 1.9.6 2 2.1h-3.9c.1-1.5.9-2.1 1.9-2.1zm5.5 3.5c0-3.7-2.1-5.9-5.4-5.7-3.4 0-5.4 2.3-5.4 5.6 0 3.2 2.1 5.6 5.6 5.6 2.4 0 4.1-1 5.1-2.6l-2.6-1.3c-.5.7-1.2 1.3-2.3 1.3-1.3 0-2.2-.8-2.3-2.3h7.3v-.6zM169.2 31.4c1.2 0 1.9.6 2 2.1h-3.9c.1-1.5 1-2.1 1.9-2.1zm.1-2.2c-3.4 0-5.4 2.3-5.4 5.6 0 3.2 2.1 5.6 5.6 5.6 2.4 0 4.1-1 5.1-2.6l-2.6-1.3c-.5.7-1.2 1.3-2.3 1.3-1.3 0-2.2-.8-2.3-2.3h7.3v-.6c0-3.7-2.1-5.9-5.4-5.7zM183 29.1c-.3-.1-.6-.1-.9-.1-1.1 0-2.2.5-2.9 2v-1.7H176v10.8h3.4v-4.2c0-2.9 1.3-3.6 2.9-3.6h.7v-3.2M183.8 29.3h3.4V40h-3.4V29.3zm1.8-5c-1 0-1.9.8-1.9 1.8s.9 1.8 1.9 1.8 1.9-.8 1.9-1.8c0-1.1-.9-1.9-1.9-1.8zM199.2 33c0-2.6-1.3-4-3.6-4-1.4 0-2.6.5-3.4 1.7v-1.4H189V40h3.4v-5.8c0-1.5.8-2.4 1.9-2.4s1.5.7 1.5 2.2v6h3.4v-7M205.7 31.1c1.1 0 1.7.5 1.7 1.4 0 .9-.6 1.4-1.7 1.4s-1.7-.6-1.7-1.4c0-.8.6-1.4 1.7-1.4zm.4 8.6c1.3 0 1.8.2 1.8.9 0 .6-.6 1-2.3 1-2 0-2.4-.4-2.4-1 0-.3.1-.6.5-.9h2.4zm5.4-8.8v-2.6c-1.5 0-2.5.6-3.2 1.4-.8-.4-1.7-.6-2.9-.6-3.3 0-4.9 1.6-4.9 3.6 0 1.1.6 2 1.5 2.6-.9.5-1.4 1.2-1.4 2 0 .7.3 1.4 1.1 1.8-1 .5-1.5 1.2-1.5 2.1 0 1.5 1.2 2.7 5.3 2.7 3.7 0 5.6-1.3 5.6-3.4 0-1.9-1.5-3.3-4.7-3.3h-1.7c-1 0-1.3-.3-1.3-.7 0-.2.1-.4.3-.6.6.2 1.3.3 2.1.3 3.2 0 4.8-1.6 4.8-3.5 0-.6-.1-1.1-.5-1.6.4-.2.8-.2 1.5-.2h-.1zM130.8 1.3V.6h6v.7c-1.3.1-1.7.4-1.7 1.9v6c0 3.4 1.8 4.9 5.1 4.9s5.1-1.5 5.1-4.9V4.4c0-2.3-.7-2.9-1.8-3.2V.6h4.8v.6c-1.2.3-1.8.9-1.8 3.2v4.8c.1 3.8-1.9 6.5-7 6.5s-7.1-2.7-7.1-6.5V3.3c0-1.5-.4-1.8-1.6-2zm23.4 14.2h-5.1v-.6c1.1-.1 1.3-.4 1.3-1.5V8.1H149v-.3l2.9-1.9h.9v1.9c1.2-1 2.4-1.8 3.6-1.8 2 0 2.7 1.1 2.7 2.7v4.7c0 1.1.2 1.3 1.3 1.5v.6h-5.1v-.6c1.1-.1 1.3-.4 1.3-1.5V8.9c-.1-.9-.3-1.4-1.3-1.4-.7 0-1.5.4-2.5 1.3v4.6c0 1.1.2 1.3 1.3 1.5l.1.6zm8.6-12.6c0-.8.6-1.5 1.5-1.5.7 0 1.3.6 1.3 1.4s-.7 1.5-1.5 1.5-1.4-.7-1.3-1.4zm4.1 12v.6h-5.3v-.6c1.2-.2 1.4-.4 1.4-1.5V8.1h-1.4v-.4l2.9-1.9h1v7.6c0 1.1.2 1.3 1.4 1.5zm5.8.6h-1l-3.4-7.3c-.5-1.1-.8-1.3-1.4-1.5v-.6h5.2v.6c-1.3.1-1.4.7-1 1.6l1.9 4.2 1.5-3.6c.6-1.4.5-2-.8-2.3V6h3.9v.6c-.7.2-1 .6-1.7 2.2l-3.2 6.7zm13.6-1.8c-.6 1.1-1.8 1.9-3.7 2-3 0-4.8-2.1-4.8-4.8 0-2.8 2-5 4.8-5 1.9 0 3.5 1.1 3.6 3.2l-5.9 2c.3 1.8 1.4 3.2 3.2 3.2 1 0 1.8-.4 2.3-1l.5.4zm-6.2-3.7 3.7-1.3c-.2-1.2-.8-1.9-1.7-1.9-1.3 0-2 1-2 2.6v.6zm12.4 4.8v.6h-5.3v-.6c1.1-.1 1.3-.4 1.3-1.5V8h-1.4v-.4l2.9-1.9h.9v2c.7-1.2 1.4-2 2.4-2 .9 0 1.4.5 1.4 1.4 0 1.1-.6 1.6-1.3 1.6s-1.2-.5-1.2-1.3c-.4.4-.8.9-1.2 1.6v4.1c0 1.2.2 1.5 1.5 1.7zm10.4-2.3c0 1.9-1.7 3.1-3.8 3-.8 0-1.5-.2-2.2-.5l-.6.4h-.3l-.8-3.1.5-.2c1.3 1.5 2.3 2.4 3.6 2.4.9-.1 1.4-.5 1.4-1.2 0-1-1-1.3-2.4-1.8-1.5-.4-3-1-3-2.8s1.4-3 3.5-3c.7 0 1.3.2 1.9.4l.4-.3h.3l.8 2.5-.5.2c-1.1-1.2-2-1.8-3-1.8-.8 0-1.2.5-1.2 1.1 0 1.1 1 1.3 2.4 1.8 1.5.5 3 1.1 3 2.9zm2-9.7c0-.8.6-1.5 1.5-1.5.8 0 1.4.6 1.4 1.4s-.7 1.5-1.5 1.5-1.4-.6-1.4-1.4zm4.3 12v.6h-5.3v-.6c1.2-.2 1.4-.4 1.4-1.5V8h-1.4v-.4l2.9-1.9h1v7.6c0 1.1.2 1.3 1.4 1.5zm4.2.9c-1.5 0-2.2-.7-2.2-2V7.2h-1.4v-.6l3.6-2.3h.4v1.8h2.5v1.1h-2.5v6c0 .6.3 1.1 1.2 1.1.4 0 .9-.2 1.4-.4l.3.6c-1 .7-2.1 1.1-3.3 1.2zM222 17c-1 2.1-1.8 2.7-3.2 2.7-.8 0-1.6-.7-1.6-1.6s.6-1.4 1.3-1.4 1.2.4 1.4 1.2c.3-.3.6-.8.9-1.5l.6-1.2-3.3-7.1c-.5-1.1-.8-1.3-1.4-1.5V6h5.2v.6c-1.3.1-1.4.7-1 1.6l1.9 4.2 1.5-3.6c.6-1.4.5-2-.8-2.3v-.6h3.9v.6c-.7.2-1 .6-1.7 2.2L222 17zM16.2 15.8h-.8L4 4.4v7.5c0 2.3.7 2.9 1.8 3.2v.6H1v-.6c1.1-.3 1.8-.9 1.8-3.2V4c0-.6-.3-.9-.6-1.2C1.3 1.9.8 1.6 0 1.5V.9h3.7c.4 0 .6.1 1.2.6L15 11.7v-7c0-2.3-.7-2.9-1.8-3.2V.9H18v.6c-1.2.3-1.8.9-1.8 3.2v11.1zm7.8.1c-3.1 0-4.9-2.2-4.9-4.8 0-2.7 1.9-5 5.1-5s4.9 2.2 4.9 4.8c0 2.7-1.9 5-5.1 5zm.2-1c1.6 0 2.4-1.1 2.4-2.9 0-2.3-.6-4.9-2.7-4.9-1.6 0-2.4 1.1-2.4 2.9.1 2.4.7 5 2.7 4.9zm11.7.8h-5.3v-.6c1.1-.1 1.3-.4 1.3-1.5V8.3h-1.4v-.4L33.4 6h.9v2c.7-1.2 1.4-2 2.4-2 .9 0 1.4.5 1.4 1.4 0 1.1-.6 1.6-1.3 1.6s-1.2-.5-1.2-1.3c-.4.4-.8.9-1.2 1.6v4.1c0 1.2.2 1.5 1.5 1.7v.6zm6.4.3c-1.5 0-2.2-.7-2.2-2V7.5h-1.4v-.6l3.6-2.3h.4v1.8h2.5v1.1h-2.5v6c0 .6.3 1.1 1.2 1.1.4 0 .9-.2 1.4-.4l.3.6c-1 .7-2.1 1.1-3.3 1.2zm9-.3h-5.1v-.6c1.1-.1 1.3-.4 1.3-1.5V2.5h-1.4v-.4L49.3 0h.7v7.9c1.2-1 2.4-1.7 3.6-1.7 2 0 2.7 1.1 2.7 2.7v4.7c0 1.1.2 1.3 1.3 1.5v.6h-5.1v-.6c1.1-.1 1.3-.4 1.3-1.5V9.1c-.1-.9-.3-1.4-1.3-1.4-.8 0-1.6.4-2.5 1.3v4.6c0 1.1.2 1.3 1.3 1.5v.6zm12 .2c-3 0-4.8-2.1-4.8-4.8 0-2.8 2-5 4.8-5 2 0 3.5 1.1 3.7 3.2l-5.9 2c.3 1.8 1.4 3.2 3.2 3.2 1 0 1.8-.4 2.3-1l.5.4c-.7 1.1-1.8 2-3.8 2zm-2.5-5.6L64.5 9c-.2-1.2-.8-1.9-1.7-1.9-1.3 0-2 1-2 2.6v.6zm12.5 4.4c-.9.7-2 1.1-2.9 1.1-1.5 0-2.4-.8-2.4-2.2 0-1.8 1.7-2.6 5.2-3.5v-2c0-.8-.4-1.1-1.3-1.1-.5 0-1 .2-1.5.4.3.2.5.7.4 1.3-.1.6-.5 1.1-1.3 1.1-.7 0-1.1-.5-1.1-1.1 0-1.3 1.9-2.6 4.5-2.6 2.2 0 2.9.8 2.9 2.4v5.3c0 .6.3.8 1.3.6l.2.6c-.6.4-1.5.8-2.4.8-.8 0-1.3-.4-1.6-1.1zm-1.5-.2c.4 0 .9-.2 1.5-.6V11c-2.3.6-2.8 1.1-2.8 2.1s.5 1.4 1.3 1.4zm10.3 1.3c-.8 0-1.5-.2-2.2-.5l-.6.4H79l-.8-3.1.5-.2c1.3 1.5 2.3 2.4 3.6 2.4.9-.1 1.4-.5 1.4-1.2 0-1.1-1-1.3-2.4-1.8-1.5-.4-3-1-3-2.8s1.4-3 3.5-3c.7 0 1.3.2 1.9.4l.4-.3h.3l.8 2.5-.5.2c-1.1-1.2-2-1.8-3-1.8-.8 0-1.2.5-1.2 1.1 0 1 .9 1.3 2.3 1.7 1.5.5 3 1.1 3 2.9 0 1.9-1.7 3.1-3.7 3.1zm7.9.1c-1.5 0-2.2-.7-2.2-2V7.4h-1.4v-.6L90 4.5h.4v1.8h2.5v1.1h-2.5v6c0 .6.3 1.1 1.2 1.1.4 0 .9-.2 1.4-.4l.3.6c-1 .7-2.1 1.1-3.3 1.2zm8.8-.1c-3 0-4.8-2.1-4.8-4.8 0-2.8 2-5 4.8-5 1.9 0 3.5 1.1 3.6 3.2l-5.9 2c.3 1.8 1.4 3.2 3.2 3.2 1 0 1.8-.4 2.3-1l.5.4c-.7 1.2-1.8 2-3.7 2zm-2.6-5.6 3.7-1.3c-.2-1.2-.8-1.9-1.7-1.9-1.3 0-2 1-2 2.6v.6zm12.5 5.4h-5.3V15c1.1-.1 1.3-.4 1.3-1.5V8.2h-1.4v-.4l2.9-1.9h.9v2c.7-1.2 1.4-2 2.4-2 .9 0 1.4.5 1.4 1.4 0 1.1-.6 1.6-1.3 1.6s-1.2-.5-1.2-1.3c-.4.4-.8.9-1.2 1.6v4.1c0 1.2.2 1.5 1.5 1.7v.6zm7.9-.1h-5.1v-.6c1.1-.1 1.3-.4 1.3-1.5V8.1h-1.4v-.4l3-1.7h.9v1.9c1.2-1 2.4-1.8 3.6-1.8 2 0 2.7 1.1 2.7 2.7v4.7c0 1.1.2 1.3 1.3 1.5v.6h-5.1V15c1.1-.1 1.3-.4 1.3-1.5V9c-.1-.9-.3-1.4-1.3-1.4-.7 0-1.5.4-2.5 1.3v4.6c0 1.1.2 1.3 1.3 1.5v.5z"/></svg>